<?xml version="1.0" encoding="utf-8"?>
<!-- Generator: Adobe Illustrator 21.0.0, SVG Export Plug-In . SVG Version: 6.00 Build 0)  -->
<svg version="1.1" id="图层_1" xmlns="http://www.w3.org/2000/svg" xmlns:xlink="http://www.w3.org/1999/xlink" x="0px" y="0px"
	 viewBox="0 0 544.9 556.6" style="enable-background:new 0 0 544.9 556.6;" xml:space="preserve">
<style type="text/css">
	.st0{fill:#323C4B;}
	.st1{font-family:'Avenir-Black';}
	.st2{font-size:14px;}
	.st3{letter-spacing:-1;}
	.st4{fill:none;}
	.st5{fill:#FBFBFB;}
	.st6{font-family:'Avenir-Medium';}
	.st7{font-size:12px;}
	.st8{fill:#EECE27;}
	.st9{font-family:'Avenir-MediumOblique';}
	.st10{fill:none;stroke:#EECE27;stroke-linecap:round;stroke-linejoin:round;}
	.st11{fill:none;stroke:#EECE27;stroke-linecap:round;stroke-linejoin:round;stroke-dasharray:0.5,3;}
</style>
<title>资源 2</title>
<g>
	<text transform="matrix(1 0 0 1 398.6185 50.8398)" class="st0 st1 st2">QUE</text>
	<text transform="matrix(1 0 0 1 429.7385 50.8398)" class="st0 st1 st2">R</text>
	<text transform="matrix(1 0 0 1 438.2985 50.8398)" class="st0 st1 st2">Y DEFINITION</text>
	<text transform="matrix(1 0 0 1 404.4285 178.7398)" class="st0 st1 st2">D</text>
	<text transform="matrix(1 0 0 1 415.0585 178.7398)" class="st0 st1 st2 st3">AT</text>
	<text transform="matrix(1 0 0 1 430.8885 178.7398)" class="st0 st1 st2">A G</text>
	<text transform="matrix(1 0 0 1 456.2985 178.7398)" class="st0 st1 st2 st3">A</text>
	<text transform="matrix(1 0 0 1 465.3885 178.7398)" class="st0 st1 st2">THERING</text>
	<text transform="matrix(1 0 0 1 412.2084 292.0898)" class="st0 st1 st2">D</text>
	<text transform="matrix(1 0 0 1 422.8384 292.0898)" class="st0 st1 st2 st3">AT</text>
	<text transform="matrix(1 0 0 1 438.6685 292.0898)" class="st0 st1 st2">A ANA</text>
	<text transform="matrix(1 0 0 1 485.3484 292.0898)" class="st0 st1 st2 st3">L</text>
	<text transform="matrix(1 0 0 1 491.3084 292.0898)" class="st0 st1 st2">YSIS</text>
	<text transform="matrix(1 0 0 1 392.1284 419.2098)" class="st0 st1 st2">D</text>
	<text transform="matrix(1 0 0 1 402.7584 419.2098)" class="st0 st1 st2 st3">AT</text>
	<text transform="matrix(1 0 0 1 418.5884 419.2098)" class="st0 st1 st2">A VISUALIZ</text>
	<text transform="matrix(1 0 0 1 496.3684 419.2098)" class="st0 st1 st2 st3">A</text>
	<text transform="matrix(1 0 0 1 505.4584 419.2098)" class="st0 st1 st2">TION</text>
	<rect x="64" y="26.2" class="st4" width="235" height="42"/>
	<g>
		<text transform="matrix(1 0 0 1 77.2584 36.4398)" class="st5 st6 st7">How is the importance of Nuclear Power </text>
		<text transform="matrix(1 0 0 1 77.2584 50.8398)" class="st5 st6 st7">changing among China, the United States </text>
		<text transform="matrix(1 0 0 1 77.2584 65.2399)" class="st5 st6 st7">and Japan, compa</text>
		<text transform="matrix(1 0 0 1 176.4384 65.2399)" class="st5 st6 st7">r</text>
		<text transform="matrix(1 0 0 1 180.6584 65.2399)" class="st5 st6 st7">ed with Thermal Power?</text>
		<text transform="matrix(1 0 0 1 297.5584 36.4398)" class="st5 st6 st7">-</text>
	</g>
	<text transform="matrix(1 0 0 1 10.3084 186.0998)" class="st5 st6 st7">china electricity council</text>
	<text transform="matrix(1 0 0 1 77.9584 17.0898)" class="st8 st9 st7">Query</text>
	<text transform="matrix(1 0 0 1 164.9484 375.5398)" class="st5 st6 st7">Nodebox</text>
	<text transform="matrix(1 0 0 1 144.4084 482.0098)" class="st5 st6 st7">Adobe Illustrator</text>
	<text transform="matrix(1 -2.967055e-03 2.967055e-03 1 157.6284 398.7698)" class="st5 st6 st7">Rawgraphic</text>
	<text transform="matrix(1 0 0 1 143.2485 359.9698)" class="st8 st9 st7 st3">T</text>
	<text transform="matrix(1 0 0 1 148.8084 359.9698)" class="st8 st9 st7">ools</text>
	<text transform="matrix(1 0 0 1 150.8384 291.9698)" class="st5 st6 st7">generation.csv</text>
	<text transform="matrix(1 0 0 1 144.3585 276.3998)" class="st8 st9 st7">Data</text>
	<text transform="matrix(1 0 0 1 9.5784 169.3798)" class="st8 st9 st7">Sou</text>
	<text transform="matrix(1 0 0 1 30.0485 169.3798)" class="st8 st9 st7">r</text>
	<text transform="matrix(1 0 0 1 34.2784 169.3798)" class="st8 st9 st7">ce</text>
	<text transform="matrix(1 0 0 1 240.1085 186.0998)" class="st5 st6 st7">world bank open data</text>
	<text transform="matrix(1 0 0 1 239.2485 169.3798)" class="st8 st9 st7">Sou</text>
	<text transform="matrix(1 0 0 1 259.7184 169.3798)" class="st8 st9 st7">r</text>
	<text transform="matrix(1 0 0 1 263.9484 169.3798)" class="st8 st9 st7">ce</text>
	<line class="st10" x1="190.6" y1="76.9" x2="190.6" y2="117"/>
	<line class="st10" x1="190.6" y1="222.3" x2="190.6" y2="263.1"/>
	<polygon class="st8" points="188.9,261.1 190.6,262.8 192.3,261.1 192.3,262.5 190.6,264.2 188.9,262.5 	"/>
	<line class="st10" x1="79.7" y1="152.7" x2="79.7" y2="117"/>
	<polygon class="st8" points="81.4,150.7 79.7,152.4 78,150.7 78,152.1 79.7,153.8 81.4,152.1 	"/>
	<line class="st10" x1="299.8" y1="117" x2="299.8" y2="152.7"/>
	<polygon class="st8" points="298.1,150.7 299.8,152.4 301.5,150.7 301.5,152.1 299.8,153.8 298.1,152.1 	"/>
	<line class="st10" x1="79.7" y1="222.3" x2="79.7" y2="198.1"/>
	<line class="st10" x1="299.8" y1="198.1" x2="299.8" y2="222.3"/>
	<line class="st10" x1="190.6" y1="305.9" x2="190.6" y2="347.9"/>
	<polygon class="st8" points="188.9,346 190.6,347.7 192.3,346 192.3,347.4 190.6,349.1 188.9,347.4 	"/>
	<line class="st11" x1="190.2" y1="498.8" x2="190.2" y2="526.4"/>
	<polygon class="st8" points="188.5,524.4 190.2,526.1 191.9,524.4 191.9,525.8 190.2,527.5 188.5,525.8 	"/>
	<line class="st10" x1="79.7" y1="117" x2="299.8" y2="117"/>
	<line class="st10" x1="190.2" y1="418.3" x2="190.2" y2="457.1"/>
	<polygon class="st8" points="188.5,455.1 190.2,456.8 191.9,455.1 191.9,456.6 190.2,458.3 188.5,456.6 	"/>
	<line class="st10" x1="79.7" y1="222.3" x2="299.8" y2="222.3"/>
	<line class="st11" x1="376.3" y1="22.1" x2="376.3" y2="68.2"/>
	<line class="st11" x1="376.3" y1="107.6" x2="376.3" y2="222.3"/>
	<line class="st11" x1="376.3" y1="252.2" x2="376.3" y2="307.9"/>
	<line class="st11" x1="376.3" y1="335.8" x2="376.3" y2="482"/>
	<line class="st11" x1="376.3" y1="511.6" x2="376.3" y2="543.2"/>
	<text transform="matrix(1 0 0 1 437.7684 529.7399)" class="st0 st1 st2">INSIGHT</text>
	<text transform="matrix(1 0 0 1 160.8384 546.2898)" class="st5 st6 st7">Conclusion</text>
</g>
</svg>
