<?xml version="1.0" encoding="utf-8"?>
<!-- Generator: Adobe Illustrator 21.0.0, SVG Export Plug-In . SVG Version: 6.00 Build 0)  -->
<svg version="1.1" id="图层_1" xmlns="http://www.w3.org/2000/svg" xmlns:xlink="http://www.w3.org/1999/xlink" x="0px" y="0px"
	 viewBox="0 0 506.4 541.4" style="enable-background:new 0 0 506.4 541.4;" xml:space="preserve">
<style type="text/css">
	.st0{fill:#323C4B;}
	.st1{font-family:'Avenir-Black';}
	.st2{font-size:11.6403px;}
	.st3{letter-spacing:-1;}
	.st4{fill:none;}
	.st5{fill:#FBFBFB;}
	.st6{font-family:'Avenir-Medium';}
	.st7{font-size:9.9774px;}
	.st8{fill:#EECE27;}
	.st9{font-family:'Avenir-MediumOblique';}
	.st10{fill:none;stroke:#EECE27;stroke-linecap:round;stroke-linejoin:round;}
	.st11{fill:none;stroke:#EECE27;stroke-linecap:round;stroke-linejoin:round;stroke-dasharray:0;}
	.st12{fill:none;stroke:#EECE27;stroke-linecap:round;stroke-linejoin:round;stroke-dasharray:0.5,3;}
</style>
<title>资源 2</title>
<g id="图层_2">
	<g id="图层_1-2">
		<text transform="matrix(1 0 0 1 345.5537 82.156)" class="st0 st1 st2">QUE</text>
		<text transform="matrix(1 0 0 1 371.4287 82.156)" class="st0 st1 st2">R</text>
		<text transform="matrix(1 0 0 1 378.5459 82.156)" class="st0 st1 st2">Y DEFINITION</text>
		<text transform="matrix(1 0 0 1 350.3838 188.4987)" class="st0 st1 st2">D</text>
		<text transform="matrix(1 0 0 1 359.2227 188.4987)" class="st0 st1 st2 st3">AT</text>
		<text transform="matrix(1 0 0 1 372.3848 188.4987)" class="st0 st1 st2">A G</text>
		<text transform="matrix(1 0 0 1 393.5117 188.4987)" class="st0 st1 st2 st3">A</text>
		<text transform="matrix(1 0 0 1 401.0693 188.4987)" class="st0 st1 st2">THERING</text>
		<text transform="matrix(1 0 0 1 356.8525 336.9626)" class="st0 st1 st2">D</text>
		<text transform="matrix(1 0 0 1 365.6914 336.9626)" class="st0 st1 st2 st3">AT</text>
		<text transform="matrix(1 0 0 1 378.8535 336.9626)" class="st0 st1 st2">A ANA</text>
		<text transform="matrix(1 0 0 1 417.665 336.9626)" class="st0 st1 st2 st3">L</text>
		<text transform="matrix(1 0 0 1 422.6211 336.9626)" class="st0 st1 st2">YSIS</text>
		<text transform="matrix(1 0 0 1 340.1494 446.74)" class="st0 st1 st2">D</text>
		<text transform="matrix(1 0 0 1 348.9873 446.74)" class="st0 st1 st2 st3">AT</text>
		<text transform="matrix(1 0 0 1 362.1494 446.74)" class="st0 st1 st2">A VISUALIZ</text>
		<text transform="matrix(1 0 0 1 426.8193 446.74)" class="st0 st1 st2 st3">A</text>
		<text transform="matrix(1 0 0 1 434.3779 446.74)" class="st0 st1 st2">TION</text>
		<rect x="67.3" y="61.7" class="st4" width="195.4" height="34.9"/>
		<g>
			<text transform="matrix(1 0 0 1 78.3574 70.1828)" class="st5 st6 st7">What a</text>
			<text transform="matrix(1 0 0 1 110.3271 70.1828)" class="st5 st6 st7">r</text>
			<text transform="matrix(1 0 0 1 113.8359 70.1828)" class="st5 st6 st7">e the most </text>
			<text transform="matrix(1 0 0 1 165.0449 70.1828)" class="st5 st6 st7">r</text>
			<text transform="matrix(1 0 0 1 168.5537 70.1828)" class="st5 st6 st7">elated topics to Elec</text>
			<text transform="matrix(1 0 0 1 261.5273 70.1828)" class="st5 st6 st7">-</text>
			<text transform="matrix(1 0 0 1 78.9395 82.156)" class="st5 st6 st7">tric Power Industry and Nuclear Power in</text>
			<text transform="matrix(1 0 0 1 146.5366 94.1286)" class="st5 st6 st7">Wikipedia?</text>
		</g>
		<text transform="matrix(1 0 0 1 123.1064 159.9382)" class="st5 st6 st7">https://wikipedia.o</text>
		<text transform="matrix(1 0 0 1 208.6548 159.9382)" class="st5 st6 st7">r</text>
		<text transform="matrix(1 0 0 1 212.1636 159.9382)" class="st5 st6 st7">g/</text>
		<text transform="matrix(1 0 0 1 78.9395 54.1028)" class="st8 st9 st7">Query</text>
		<text transform="matrix(1 0 0 1 51.144 221.0168)" class="st5 st6 st7">https://en.wikipedia.o</text>
		<text transform="matrix(1 0 0 1 150.561 221.0168)" class="st5 st6 st7">r</text>
		<text transform="matrix(1 0 0 1 154.0698 221.0168)" class="st5 st6 st7">g/wiki/Nuclear_power</text>
		<text transform="matrix(1 0 0 1 51.144 236.8645)" class="st5 st6 st7">https://en.wikipedia.o</text>
		<text transform="matrix(1 0 0 1 150.561 236.8645)" class="st5 st6 st7">r</text>
		<text transform="matrix(1 0 0 1 154.0698 236.8645)" class="st5 st6 st7">g/wiki/Electric_power_industry</text>
		<text transform="matrix(1 0 0 1 51.144 206.6076)" class="st8 st9 st7">Urls</text>
		<text transform="matrix(1 0 0 1 144.5166 303.1814)" class="st5 st6 st7">Seealsology</text>
		<text transform="matrix(1 0 0 1 134.4561 366.197)" class="st5 st6 st7">network-data.tsv</text>
		<text transform="matrix(1 0 0 1 42.6719 446.74)" class="st5 st6 st7">Adobe Illustrator</text>
		<text transform="matrix(1 0 0 1 250.46 446.74)" class="st5 st6 st7">Gephi</text>
		<text transform="matrix(1 0 0 1 144.5166 289.5788)" class="st8 st9 st7 st3">T</text>
		<text transform="matrix(1 0 0 1 149.1392 289.5788)" class="st8 st9 st7">ools</text>
		<text transform="matrix(1 0 0 1 134.1484 355.2302)" class="st8 st9 st7">Data</text>
		<text transform="matrix(1 0 0 1 122.2749 146.8679)" class="st8 st9 st7">Sou</text>
		<text transform="matrix(1 0 0 1 139.2949 146.8679)" class="st8 st9 st7">r</text>
		<text transform="matrix(1 0 0 1 142.812 146.8679)" class="st8 st9 st7">ce</text>
		<line class="st10" x1="172.6" y1="103.9" x2="172.6" y2="136.2"/>
		<polygon class="st8" points="171.2,134.5 172.6,135.9 174,134.5 174,135.7 172.6,137.1 171.2,135.7 		"/>
		<line class="st10" x1="172.6" y1="168" x2="172.6" y2="198.5"/>
		<polygon class="st8" points="171.2,196.8 172.6,198.2 174,196.8 174,198 172.6,199.4 171.2,198 		"/>
		<line class="st10" x1="172.6" y1="244.9" x2="172.6" y2="278.9"/>
		<polygon class="st8" points="171.2,277.2 172.6,278.6 174,277.2 174,278.4 172.6,279.8 171.2,278.4 		"/>
		<line class="st10" x1="81.1" y1="433.5" x2="81.1" y2="403.8"/>
		<polygon class="st8" points="82.5,431.8 81.1,433.2 79.7,431.8 79.7,433 81.1,434.4 82.5,433 		"/>
		<line class="st10" x1="264.1" y1="403.8" x2="264.1" y2="433.5"/>
		<polygon class="st8" points="262.7,431.8 264.1,433.2 265.6,431.8 265.6,433 264.1,434.4 262.7,433 		"/>
		<line class="st10" x1="172.6" y1="312.3" x2="172.6" y2="347.3"/>
		<polygon class="st8" points="171.2,345.7 172.6,347.1 174,345.7 174,346.9 172.6,348.3 171.2,346.9 		"/>
		<line class="st11" x1="81.1" y1="403.8" x2="264.1" y2="403.8"/>
		<line class="st11" x1="172.6" y1="373.9" x2="172.6" y2="403.8"/>
		<line class="st12" x1="327" y1="58.3" x2="327" y2="96.6"/>
		<line class="st12" x1="327" y1="140.1" x2="327" y2="244.9"/>
		<line class="st12" x1="327" y1="289.9" x2="327" y2="372.8"/>
		<line class="st12" x1="327" y1="428.9" x2="327" y2="452.4"/>
		<line class="st12" x1="327" y1="471.7" x2="327" y2="495.3"/>
		<text transform="matrix(1 0 0 1 378.0967 486.6159)" class="st0 st1 st2">INSIGHT</text>
		<line class="st12" x1="133.9" y1="483.5" x2="81.1" y2="483.5"/>
		<polygon class="st8" points="132.3,482.1 133.7,483.5 132.3,484.9 133.5,484.9 134.9,483.5 133.5,482.1 		"/>
		<line class="st12" x1="81.1" y1="453.2" x2="81.1" y2="483.5"/>
		<line class="st12" x1="211.3" y1="483.5" x2="264.1" y2="483.5"/>
		<polygon class="st8" points="213,484.9 211.5,483.5 213,482.1 211.8,482.1 210.3,483.5 211.8,484.9 		"/>
		<line class="st12" x1="264.1" y1="453.2" x2="264.1" y2="483.5"/>
		<text transform="matrix(1 0 0 1 147.8506 486.6159)" class="st5 st6 st7">Conclusion</text>
	</g>
</g>
</svg>
