<?xml version="1.0" encoding="utf-8"?>
<!-- Generator: Adobe Illustrator 21.0.0, SVG Export Plug-In . SVG Version: 6.00 Build 0)  -->
<svg version="1.1" id="图层_1" xmlns="http://www.w3.org/2000/svg" xmlns:xlink="http://www.w3.org/1999/xlink" x="0px" y="0px"
	 viewBox="0 0 2406 1172.7" style="enable-background:new 0 0 2406 1172.7;" xml:space="preserve">
<style type="text/css">
	.st0{display:none;fill:#1B2029;}
	.st1{fill:none;stroke:#CACACA;stroke-linecap:round;stroke-linejoin:round;stroke-miterlimit:10;}
	.st2{fill:#FAFAFA;}
	.st3{font-family:'Avenir-MediumOblique';}
	.st4{font-size:48px;}
	.st5{fill:#CACACA;}
	.st6{font-family:'Avenir-Oblique';}
	.st7{font-size:36px;}
	.st8{font-family:'Avenir-Book';}
	.st9{font-size:28px;}
	.st10{font-family:'Avenir-Roman';}
	.st11{fill:url(#SVGID_1_);}
	.st12{fill:url(#SVGID_2_);}
	.st13{font-family:'Avenir-Light';}
	.st14{font-size:18px;}
	.st15{fill:none;stroke:#CACACA;stroke-miterlimit:10;}
	.st16{fill:none;}
	.st17{fill:none;stroke:#2349F2;}
	.st18{fill:none;stroke:#5C69E7;}
	.st19{fill:none;stroke:#5D6CEB;stroke-width:2;}
	.st20{fill:none;stroke:#4B5CEF;}
	.st21{fill:none;stroke:#4B5BEE;}
	.st22{fill:none;stroke:#5C69E7;stroke-width:2;}
	.st23{fill:none;stroke:#4B5AEC;}
	.st24{fill:none;stroke:#5C67E4;}
	.st25{fill:none;stroke:#4A59EB;}
	.st26{fill:none;stroke:#5C65E1;}
	.st27{fill:none;stroke:#4A59EB;stroke-width:2;}
	.st28{fill:none;stroke:#4B5BEE;stroke-width:2;}
	.st29{fill:none;stroke:#5C67E4;stroke-width:2;}
	.st30{fill:none;stroke:#E65A3E;}
	.st31{fill:none;stroke:#EA6A4A;stroke-width:2;}
	.st32{fill:none;stroke:#F7A577;stroke-width:2;}
	.st33{fill:none;stroke:#F18A61;}
	.st34{fill:none;stroke:#F59A6C;}
	.st35{fill:none;stroke:#ED7A55;}
	.st36{fill:none;stroke:#AE6997;stroke-width:2;}
	.st37{fill:none;stroke:#F18A61;stroke-width:2;}
	.st38{fill:none;stroke:#BE6C85;}
	.st39{fill:none;stroke:#5A5CD9;}
	.st40{fill:#2449F2;}
	.st41{fill:#2349F2;}
	.st42{fill:#968ADD;}
	.st43{fill:#978FE4;}
	.st44{fill:#736FEC;}
	.st45{fill:#736DEA;}
	.st46{fill:#736CE7;}
	.st47{fill:#9686D7;}
	.st48{fill:#7269E5;}
	.st49{fill:#9682D0;}
	.st50{fill:#E34A33;}
	.st51{fill:#EA6A4A;}
	.st52{fill:#F18A61;}
	.st53{fill:#FDC18D;}
	.st54{fill:#F9AA78;}
	.st55{fill:#926FC1;}
	.st56{fill:none;stroke:#F8D615;stroke-width:2;stroke-miterlimit:10;}
	.st57{fill:#F8D615;}
</style>
<rect class="st0" width="2406" height="1172.7"/>
<line class="st1" x1="1462" y1="526.7" x2="1719.2" y2="526.7"/>
<line class="st1" x1="1551.6" y1="614.4" x2="1719.2" y2="614.4"/>
<line class="st1" x1="629.5" y1="532" x2="938.3" y2="532"/>
<text transform="matrix(1 0 0 1 1744.812 540.3845)" class="st2 st3 st4">Electric Power Industry</text>
<g>
	<text transform="matrix(1 0 0 1 1744.8109 846.7561)" class="st5 st6 st7">Distributed Generation</text>
</g>
<text transform="matrix(1 0 0 1 1744.8109 625.0911)" class="st5 st8 st9">AC Power</text>
<text transform="matrix(1 0 0 1 1744.8104 209.0084)" class="st5 st8 st9">Meter Point Administration Number</text>
<text transform="matrix(1 0 0 1 1744.8113 390.195)" class="st5 st6 st7">Emissions &amp; Generation Resource </text>
<text transform="matrix(1 0 0 1 1744.8113 433.395)" class="st5 st6 st7">Integrated Database</text>
<text transform="matrix(1 0 0 1 1744.8119 726.3969)" class="st5 st6 st7">Electricity Generation</text>
<text transform="matrix(1 0 0 1 274.1761 234.945)" class="st5 st10 st9">Nuclear Power By Country</text>
<text transform="matrix(1 0 0 1 223.9451 377.1007)" class="st5 st10 st9">Thorium-based Nuclear Power</text>
<text transform="matrix(1 0 0 1 385.5315 1055.694)" class="st5 st6 st7">Feed-in Tariff</text>
<text transform="matrix(1 0 0 1 156.0339 647.5239)" class="st5 st6 st7">World Energy Consumption</text>
<text transform="matrix(1 0 0 1 306.5435 930.1148)" class="st5 st8 st9">Uranium Mining Debate</text>
<text transform="matrix(1 0 0 1 283.1924 788.8477)" class="st5 st8 st9">Nuclear Weapons Debate</text>
<text transform="matrix(1 0 0 1 284.3008 545.7726)" class="st2 st3 st4">Nuclear Power</text>
<line class="st1" x1="1384.6" y1="836.6" x2="1719.2" y2="836.6"/>
<line class="st1" x1="1052.3" y1="637.3" x2="629.5" y2="637.3"/>
<line class="st1" x1="837.1" y1="785" x2="629.5" y2="785"/>
<line class="st1" x1="1166.9" y1="748.6" x2="1166.9" y2="1046.9"/>
<line class="st1" x1="629.5" y1="1046.9" x2="1166.9" y2="1046.9"/>
<line class="st1" x1="1331.3" y1="400.9" x2="1719.2" y2="400.9"/>
<line class="st1" x1="1272.1" y1="715.5" x2="1719.2" y2="715.5"/>
<line class="st1" x1="1272.1" y1="633.8" x2="1272.1" y2="715.5"/>
<line class="st1" x1="1086.1" y1="226.7" x2="629.5" y2="226.7"/>
<line class="st1" x1="1140.5" y1="368.9" x2="629.5" y2="368.9"/>
<line class="st1" x1="989.4" y1="922.1" x2="629.5" y2="922.1"/>
<line class="st1" x1="1331" y1="401" x2="1331" y2="524.4"/>
<line class="st1" x1="1366.4" y1="198.2" x2="1719.2" y2="198.2"/>
<line class="st1" x1="1366.4" y1="301.1" x2="1366.4" y2="198.2"/>
<g>
	
		<linearGradient id="SVGID_1_" gradientUnits="userSpaceOnUse" x1="1656.1" y1="1244.6001" x2="1872.9" y2="1244.6001" gradientTransform="matrix(1 0 0 -1 0 2324)">
		<stop  offset="0" style="stop-color:#2449F2"/>
		<stop  offset="1" style="stop-color:#9682D0"/>
	</linearGradient>
	<rect x="1656.1" y="1070.7" class="st11" width="216.8" height="17.4"/>
	
		<linearGradient id="SVGID_2_" gradientUnits="userSpaceOnUse" x1="1656.1" y1="1194.5" x2="1872.9" y2="1194.5" gradientTransform="matrix(1 0 0 -1 0 2324)">
		<stop  offset="0" style="stop-color:#E34A33"/>
		<stop  offset="0.9989" style="stop-color:#F18A61"/>
	</linearGradient>
	<rect x="1656.1" y="1120.8" class="st12" width="216.8" height="17.4"/>
	<g>
		<text transform="matrix(1 0 0 1 1656.0825 1109.9056)" class="st5 st13 st14">most related</text>
	</g>
	<g>
		<text transform="matrix(1 0 0 1 1656.0824 1160.0195)" class="st5 st13 st14">most related</text>
	</g>
	<rect x="1644.1" y="1060.3" class="st15" width="524.1" height="110"/>
	<circle class="st5" cx="1914.3" cy="1080.5" r="9.8"/>
	<rect x="1904.4" y="1100.8" class="st16" width="263.7" height="63.7"/>
	<text transform="matrix(1 0 0 1 1904.4365 1116.2086)" class="st5 st13 st14">The size of the nodes indicates </text>
	<text transform="matrix(1 0 0 1 1904.4365 1137.8086)" class="st5 st13 st14">the number of “see also” pages </text>
	<text transform="matrix(1 0 0 1 1904.4365 1159.4086)" class="st5 st13 st14">related to the link.</text>
</g>
<g>
	<g id="edges">
		<path class="st17" d="M1440.8,534.6c37-6.3,102,39.8,108.3,76.8"/>
		<path class="st17" d="M1440.8,534.6c44.3,75.3-2.1,254.8-77.4,299.1"/>
		<path class="st17" d="M1440.8,534.6c-25.9,18.1-91.8,6.3-109.9-19.6"/>
		<path class="st17" d="M1440.8,534.6c-61.6-31.4-107-170.9-75.6-232.5"/>
		<path class="st17" d="M1440.8,534.6c-19.9-40.5,11.1-131,51.6-150.9"/>
		<path class="st17" d="M1440.8,534.6c-14.6-7.9-24.7-41.6-16.8-56.2"/>
		<path class="st17" d="M1440.8,534.6c14.9-29.4,81.4-51.1,110.8-36.2"/>
		<path class="st17" d="M1440.8,534.6c-17.1-24.3-6.2-86.3,18.1-103.4"/>
		<path class="st18" d="M1551.6,498.4c14.2-6.8,45.7,4.2,52.6,18.4"/>
		<path class="st18" d="M1551.6,498.4c33-11,99.1,22.1,110.1,55.1"/>
		<path class="st19" d="M1492.4,383.7c11.2-28.7,71.1-55,99.8-43.8"/>
		<path class="st19" d="M1492.4,383.7c-1.4-16.2,20.9-42.7,37.1-44.1"/>
		<path class="st18" d="M1492.4,383.7c-28.8,0-72-43.3-72-72.1"/>
		<path class="st19" d="M1492.4,383.7c-14.5,7-46.7-4.2-53.8-18.6"/>
		<path class="st18" d="M1365.2,302.1c-39.1-26.1-58.7-123.9-32.6-163.1"/>
		<path class="st19" d="M1365.2,302.1c-17.8-1.7-42-31-40.3-48.8"/>
		<path class="st20" d="M1365.2,302.1c61.1,12.5,134,122.8,121.6,183.9"/>
		<path class="st19" d="M1365.2,302.1c-33.8-9.4-70.4-74-61-107.8"/>
		<path class="st21" d="M1365.2,302.1c13.6,10.1,18.8,45.5,8.8,59.1"/>
		<path class="st18" d="M1365.2,302.1c-9-34.8,29.6-100.4,64.4-109.4"/>
		<path class="st22" d="M1331,515c-33.6-27.6-42.6-119.4-15-153"/>
		<path class="st23" d="M1331,515c36.3,10.5,75,80.8,64.5,117.2"/>
		<path class="st24" d="M1331,515c-18.1-21.7-12.6-81.3,9.1-99.4"/>
		<path class="st24" d="M1331,515c-31.6-9.4-65-70.9-55.6-102.6"/>
		<path class="st21" d="M1331,515c-2-16.9,20.4-45.2,37.3-47.2"/>
		<path class="st21" d="M1331,515c-22.2-39.4,3.7-131.7,43-153.9"/>
		<path class="st25" d="M1331,515c11.4,34.9-23.9,104.4-58.8,115.7"/>
		<path class="st24" d="M1331,515c5.5,16.4-10.8,49.3-27.2,54.8"/>
		<path class="st23" d="M1331,515c22.8,23.5,21.6,93-1.9,115.8"/>
		<path class="st24" d="M1331,515c14.3-7.2,46.5,3.6,53.7,17.9"/>
		<path class="st23" d="M1331,515c20.6,7.6,40.1,49.8,32.6,70.4"/>
		<path class="st24" d="M1331,515c-15.9-4.5-33.2-35.1-28.7-51.1"/>
		<path class="st26" d="M1363.4,833.7c-39.6,28.8-142.1,12.6-170.9-27"/>
		<path class="st26" d="M1363.4,833.7c-27.5,57.6-155.1,102.6-212.6,75.2"/>
		<path class="st26" d="M1363.4,833.7c17,2.3,39.1,31.1,36.8,48.1"/>
		<path class="st26" d="M1363.4,833.7c11.8-58.8,117.6-129.3,176.4-117.5"/>
		<path class="st23" d="M1363.4,833.7c-19.8-69,54-202.3,123-222.1"/>
		<path class="st27" d="M1363.4,833.7c-58.9-22.3-113.7-144.1-91.3-203"/>
		<path class="st28" d="M1363.4,833.7c-34.5-63,8.3-209.1,71.2-243.6"/>
		<path class="st29" d="M1363.4,833.7c37.7-29,137.8-15.8,166.8,21.9"/>
		<path class="st26" d="M1363.4,833.7c-23.5,32.7-107.7,46.5-140.4,23.1"/>
		<path class="st29" d="M1363.4,833.7c35.5,2.9,84.5,60.5,81.6,96"/>
		<path class="st26" d="M1363.4,833.7c52.4,10.5,115.1,104.9,104.6,157.3"/>
		<path class="st26" d="M1363.4,833.7c-12.5,17.3-57.3,24.5-74.6,12"/>
		<path class="st26" d="M1363.4,833.7c12.4,31.6-16.4,97.4-48,109.8"/>
		<path class="st26" d="M1363.4,833.7c17.8,81.8-78.2,231.3-160.1,249.1"/>
		<path class="st26" d="M1363.4,833.7c-14.9,68.3-139.9,148.4-208.2,133.5"/>
		<path class="st26" d="M1363.4,833.7c45.3-57.5,199.5-75.7,257-30.3"/>
		<path class="st26" d="M1363.4,833.7c-15.4,46.7-108.7,93.6-155.4,78.2"/>
		<path class="st26" d="M1363.4,833.7c36.6,56.8,6.4,197-50.4,233.7"/>
		<path class="st29" d="M1363.4,833.7c20.9,17.5,26,75,8.6,95.9"/>
		<path class="st29" d="M1363.4,833.7c50.6-41.3,188.5-27.5,229.9,23.1"/>
		<path class="st29" d="M1363.4,833.7c-33.1-1.7-80.1-53.8-78.4-86.8"/>
		<path class="st26" d="M1363.4,833.7c3.6-30.2,54.1-70,84.3-66.5"/>
		<path class="st26" d="M1363.4,833.7c-18.4-50.3,29.4-153.3,79.7-171.7"/>
		<path class="st26" d="M1363.4,833.7c55-5.3,145.5,69.2,150.9,124.2"/>
		<path class="st29" d="M1363.4,833.7c16.2-43.5,105.8-84.5,149.3-68.2"/>
		<path class="st26" d="M1363.4,833.7c54.3-24.3,172.2,20.8,196.4,75.2"/>
		<path class="st26" d="M1363.4,833.7c14.1,62.3-58.1,176.8-120.4,190.9"/>
		<path class="st29" d="M1363.4,833.7c25.6-12.1,82.2,8.2,94.3,33.8"/>
		<path class="st26" d="M1363.4,833.7c22.4,48.3-16.4,154.5-64.8,176.9"/>
		<path class="st26" d="M1363.4,833.7c-16.3,0.9-42.2-22.2-43.1-38.6"/>
		<path class="st26" d="M1363.4,833.7c-44.5,10.5-127-40.5-137.4-85"/>
		<path class="st18" d="M1549.1,611.4c4.6-18,38.5-38.2,56.5-33.6"/>
		<path class="st23" d="M1549.1,611.4c-12.5,12.6-50.1,12.7-62.6,0.2"/>
		<path class="st18" d="M1549.1,611.4c18.3-8.9,59.1,5.1,68,23.3"/>
		<path class="st20" d="M1549.1,611.4c-37.5-12.6-74.9-87.9-62.3-125.4"/>
		<path class="st18" d="M1549.1,611.4c14,6.9,24.8,38.3,17.9,52.3"/>
		<path class="st30" d="M951.7,533.3c-21.5,46-122.9,82.8-168.9,61.3"/>
		<path class="st30" d="M951.7,533.3c-49.6-2-121-79.5-119-129.2"/>
		<path class="st30" d="M951.7,533.3c-34-89,48.7-273.5,137.7-307.5"/>
		<path class="st30" d="M951.7,533.3c29.6,71.9-33.9,224-105.8,253.6"/>
		<path class="st30" d="M951.7,533.3c4.6-71.4,118.7-171.7,190.1-167.1"/>
		<path class="st30" d="M951.7,533.3c85.8,68.5,111.8,300.1,43.2,385.9"/>
		<path class="st30" d="M951.7,533.3c41.6-0.2,104.4,61.8,104.7,103.4"/>
		<path class="st31" d="M951.7,533.3c-24.9-34.8-10-124.4,24.8-149.3"/>
		<path class="st32" d="M976.5,384c-8.4,29.5-65.3,61.1-94.8,52.7"/>
		<path class="st33" d="M976.5,384c11.2-14.3,49.5-19,63.8-7.8"/>
		<path class="st32" d="M976.5,384c-2.1-26.2,34-68.7,60.3-70.8"/>
		<path class="st33" d="M976.5,384c16.6,0.8,40.2,27,39.4,43.6"/>
		<path class="st34" d="M976.5,384c-36.8-15.1-69.4-93-54.3-129.9"/>
		<path class="st34" d="M976.5,384c-10.6,11.9-44.4,13.9-56.4,3.3"/>
		<path class="st34" d="M976.5,384c-21.9-21.4-22.5-86.4-1-108.2"/>
		<path class="st33" d="M976.5,384c15.4-29.3,82.5-50.1,111.8-34.7"/>
		<path class="st35" d="M1056.4,636.8c32.3,45.8,12.1,162.8-33.6,195.2"/>
		<path class="st35" d="M1056.4,636.8c-0.2,49.1-74.3,122.5-123.4,122.2"/>
		<path class="st35" d="M1056.4,636.8c49.6,35.3,71.1,162.7,35.8,212.3"/>
		<path class="st35" d="M1056.4,636.8c-29.6-18.7-46.1-91.2-27.4-120.9"/>
		<path class="st36" d="M1056.4,636.8c41.9-44.3,171.4-47.9,215.7-6"/>
		<path class="st37" d="M1056.4,636.8c47.3,18.7,90.2,117.7,71.5,165"/>
		<path class="st35" d="M1056.4,636.8c-37.3-50.8-17.2-182.9,33.6-220.3"/>
		<path class="st35" d="M1056.4,636.8c14.9,54.8-44.8,159.3-99.6,174.2"/>
		<path class="st35" d="M1056.4,636.8c-0.2,33-49.9,82.2-82.9,82"/>
		<path class="st35" d="M1056.4,636.8c16.8,23.2,7.3,83.2-15.9,100.1"/>
		<path class="st35" d="M1056.4,636.8c-45.4-16.3-89.1-108.9-72.8-154.3"/>
		<path class="st35" d="M1056.4,636.8c-21-45.6,16.1-145.5,61.7-166.5"/>
		<path class="st38" d="M1056.4,636.8c45.4,0.6,112.6,69.7,112,115.2"/>
		<path class="st35" d="M1056.4,636.8c33.3,29.7,38.6,124.1,8.9,157.4"/>
		<path class="st35" d="M1056.4,636.8c15.3,7.1,27.6,40.8,20.5,56.2"/>
		<path class="st35" d="M1056.4,636.8c-14.7,7.7-48.2-2.8-55.9-17.5"/>
		<path class="st35" d="M1056.4,636.8c38.2-16.2,119.8,16.9,135.9,55.1"/>
		<path class="st35" d="M1056.4,636.8c-0.2,17.4-26.6,43.3-44,43.2"/>
		<path class="st37" d="M1056.4,636.8c-35.8,30.9-135.9,23.5-166.8-12.3"/>
		<path class="st35" d="M1056.4,636.8c-14.7,55.6-120,116.9-175.5,102.2"/>
		<path class="st35" d="M1056.4,636.8c-17.8,23.9-80.4,33.2-104.3,15.4"/>
		<path class="st35" d="M1056.4,636.8c-4.1-41,51.3-108.6,92.3-112.7"/>
		<path class="st35" d="M1056.4,636.8c-30.4,47.4-147,72.8-194.4,42.4"/>
		<path class="st35" d="M1056.4,636.8c-47.8,15.8-143.3-32.2-159.2-80.1"/>
		<path class="st35" d="M1056.4,636.8c12.9-36.8,87.3-72.6,124.1-59.8"/>
		<path class="st35" d="M995,919.2c-12.9,10.8-48.3,7.6-59-5.2"/>
		<path class="st35" d="M995,919.2c16.2-2.8,44.8,17.2,47.7,33.5"/>
		<path class="st37" d="M995,919.2c31-10.2,92.7,21,102.8,52"/>
		<path class="st35" d="M995,919.2c63.1,3.8,152,104.2,148.2,167.3"/>
		<path class="st31" d="M995,919.2c-56.3,3.4-145.7-76-149.1-132.3"/>
		<path class="st35" d="M995,919.2c-9.4,25.4-61.6,49.4-87,40"/>
		<path class="st35" d="M995,919.2c50.2,14.4,103.9,111.3,89.5,161.5"/>
		<path class="st35" d="M1141.8,366.2c-18.3,22.3-79.2,28.3-101.5,10"/>
		<path class="st35" d="M1141.8,366.2c13,8,20.4,39.5,12.4,52.5"/>
		<path class="st35" d="M1141.8,366.2c22.1-5.7,63.9,18.9,69.6,41"/>
		<path class="st37" d="M1141.8,366.2c7.8-34,70.6-73.4,104.6-65.6"/>
		<path class="st35" d="M845.9,786.9c7.6,30.7-27,88.3-57.8,96"/>
		<path class="st35" d="M845.9,786.9c-16.4-6.4-31.5-40.6-25.1-57"/>
		<path class="st35" d="M845.9,786.9c27.5,20.2,38.5,91.8,18.3,119.3"/>
		<path class="st37" d="M845.9,786.9c11.1,14.3,6.2,52.4-8.1,63.5"/>
		<path class="st35" d="M845.9,786.9c-22.9,24.4-93.7,26.7-118.1,3.9"/>
		<path class="st35" d="M1089.4,225.9c2.9-19.2,36.2-43.7,55.4-40.8"/>
		<path class="st35" d="M1089.4,225.9c22.6-23.2,91.3-24,114.5-1.4"/>
		<path class="st35" d="M1089.4,225.9c-27.2-13.5-47.8-74.5-34.3-101.7"/>
		<path class="st35" d="M1089.4,225.9c4.6-49.8,86.2-117.8,136-113.2"/>
		<path class="st35" d="M1089.4,225.9c23.3-40.8,119.4-67.1,160.2-43.8"/>
		<path class="st35" d="M832.8,404.2c-0.5-17,24.3-43.2,41.3-43.6"/>
		<path class="st35" d="M832.8,404.2c3.6,31.7-38.5,84.7-70.2,88.3"/>
		<path class="st35" d="M832.8,404.2c-23.9,15.2-82.6,2.1-97.8-21.8"/>
		<path class="st35" d="M832.8,404.2c-16.4,30.3-86.3,51.1-116.5,34.8"/>
		<path class="st35" d="M832.8,404.2c-16-15-17.5-61.4-2.5-77.3"/>
		<path class="st35" d="M832.8,404.2c-30.6-23.2-41.7-103.8-18.5-134.4"/>
		<path class="st35" d="M832.8,404.2c-5.1,17.7-39.2,36.6-57,31.6"/>
		<path class="st35" d="M782.8,594.6c18.3,14.6,24,64,9.4,82.3"/>
		<path class="st37" d="M782.8,594.6c-8.5-16,2.7-52.9,18.8-61.4"/>
		<path class="st35" d="M782.8,594.6c-16.2,20.8-71.6,27.7-92.4,11.5"/>
		<path class="st30" d="M910.9,488.2c17.2,0.8,41.7,27.9,40.9,45.1"/>
		<path class="st30" d="M858.2,511c23.2-14.2,79.3-0.9,93.5,22.3"/>
		<path class="st30" d="M843.7,576.3c13-30.2,77.8-56,108-43"/>
		<path class="st30" d="M946.6,440.6c19.6,17.5,22.6,73.2,5.1,92.7"/>
		<path class="st24" d="M1270,517.6c11.7-12.7,48.3-14.2,60.9-2.5"/>
		<path class="st24" d="M1239.8,462.7c28.7-7.8,83.4,23.6,91.2,52.3"/>
		<path class="st18" d="M1360.4,203.6c20.7,18.7,23.6,77.8,4.9,98.5"/>
		<path class="st18" d="M1389,155c24.7,34.2,10.4,122.4-23.7,147.1"/>
		<path class="st18" d="M1393.3,248.2c5.2,16.4-11.6,48.7-28,53.9"/>
		<path class="st18" d="M1612.1,700.7c-30.4-5.3-68.2-58.8-63-89.3"/>
		<path class="st18" d="M1648.2,744.4c-46.4-6.8-105.8-86.5-99.1-132.9"/>
		<path class="st18" d="M1548.8,556.6c11,10.9,11.2,43.8,0.3,54.8"/>
		<path class="st18" d="M1664.2,675.8c-35.9,10.1-104.9-28.5-115.1-64.4"/>
		<path class="st23" d="M1363.5,585.4c49.6,49.7,49.6,198.7-0.1,248.3"/>
		<path class="st26" d="M1267.6,900.8c5.7-32.6,63.2-72.8,95.8-67.1"/>
		<path class="st26" d="M1408.7,973c-36.9-18.8-64.1-102.3-45.3-139.2"/>
		<path class="st23" d="M1329,630.8c47.5,33.7,68.1,155.5,34.4,202.9"/>
		<path class="st26" d="M1365.5,1049.6c-43.6-42.8-44.8-172.3-2.1-215.9"/>
		<path class="st26" d="M1369,682c29.2,31.5,25.9,122.5-5.6,151.8"/>
		<path class="st26" d="M1259.3,1080.4c-28.5-70.2,34-218.2,104.2-246.7"/>
		<path class="st23" d="M1395.4,632.2c33.9,46.7,14.7,167.6-32,201.5"/>
		<path class="st26" d="M1384.6,774c7.7,16.2-5,52.1-21.2,59.8"/>
		<path class="st26" d="M1184.3,1027c-2.8-74.5,104.6-190.4,179.1-193.3"/>
		<path class="st26" d="M1331.3,883.7c-3.6-16.4,15.7-46.4,32.1-50"/>
		<path class="st26" d="M1504.1,665.4c5.5,61.8-78.9,162.8-140.7,168.3"/>
		<path class="st26" d="M1412.7,717.2c13.5,33.2-16.1,103.1-49.2,116.6"/>
		<path class="st26" d="M1419,1028c-50-27.7-83.3-144.3-55.6-194.2"/>
		<path class="st26" d="M1421.9,820.7c-9.1,14.3-44.2,22.1-58.5,13"/>
		<path class="st26" d="M1158.3,855.6c36.7-45.4,159.8-58.5,205.2-21.8"/>
		<path class="st26" d="M1262.6,960.8c-5.2-45.6,55.3-121.9,100.9-127.1"/>
		<path class="st26" d="M1557.3,805.8c-33.2,44.4-149.5,61.2-193.9,28"/>
		<path class="st26" d="M1499.2,905.7c-41.6,12.8-123-30.4-135.8-72"/>
		<path class="st26" d="M1209.5,971c3.3-58.2,95.7-140.6,154-137.2"/>
		<path class="st26" d="M1308.1,687.1c40.4,18.3,73.6,106.2,55.4,146.6"/>
		<path class="st26" d="M1486.8,816c-21.1,28.2-95.2,38.8-123.4,17.7"/>
		<path class="st26" d="M1474.4,715.5c1.5,45.8-65.1,116.8-110.9,118.3"/>
		<path class="st26" d="M1583.7,755.2c-28.3,59.8-160.5,106.9-220.3,78.6"/>
		<path class="st39" d="M1168.4,751.9c55.4-22.6,172.4,26.4,195.1,81.8"/>
		<path class="st26" d="M1251.5,692.2c50.7,5.9,117.9,90.8,111.9,141.5"/>
		<path class="st26" d="M1253.5,801.4c28.5-15.5,94.4,3.9,109.9,32.4"/>
		<path class="st26" d="M1352.6,992.9c-29.7-34-23.2-129.5,10.8-159.2"/>
		<path class="st26" d="M1344.2,736.3c23.3,15.6,34.9,74.1,19.2,97.4"/>
		<path class="st21" d="M1434.7,590.1c-29.7-52.8,4.9-176.7,57.8-206.4"/>
		<path class="st18" d="M1557.7,393.5c-15,11.1-54.2,5.2-65.3-9.8"/>
		<path class="st18" d="M1515.6,257.6c20.6,29.9,6.7,105.5-23.1,126.1"/>
		<path class="st18" d="M1558.6,289.8c5.6,32-34.1,88.4-66.1,93.9"/>
		<path class="st18" d="M1522.4,440.3c-17.3-5.3-35.3-39.2-30-56.6"/>
		<path class="st18" d="M1482,212.5c36.3,32.2,42.6,134.9,10.5,171.2"/>
		<path class="st18" d="M1496,545.6c-33.1-31.7-35.2-128.8-3.6-161.9"/>
		<path class="st18" d="M1450,260.1c33.2,16.2,58.6,90.4,42.4,123.6"/>
		<path class="st18" d="M1481.1,312.2c16.6,12,23.3,54.9,11.3,71.5"/>
		<path class="st18" d="M1656.5,496.9c-20.7,21.3-83.6,22.2-104.9,1.5"/>
		<path class="st18" d="M1668.1,610c-45.6,1-115.5-66-116.4-111.7"/>
		<path class="st18" d="M1640.1,444c-6.8,28.6-59.9,61.2-88.5,54.4"/>
		<path class="st18" d="M1584,450.8c3.1,16-16.3,44.6-32.3,47.6"/>
		<path class="st18" d="M1618.5,391.9c7.9,34.7-32.2,98.6-66.9,106.5"/>
		<path class="st18" d="M1402.4,414.1c14.7-7.9,48.6,2.4,56.5,17.1"/>
		<path class="st21" d="M1368.3,467.8c13.3-9,46.8-2.7,55.8,10.6"/>
		<path class="st35" d="M688.4,549.1c28-9.8,84.6,17.6,94.4,45.6"/>
		<path class="st35" d="M742.5,554.7c16.1-0.1,40.2,23.9,40.3,40"/>
		<path class="st35" d="M740.5,692.1c-11-27.9,14.3-86.4,42.3-97.5"/>
		<path class="st35" d="M689.1,667c4.3-33.2,60.5-76.7,93.7-72.4"/>
		<path class="st35" d="M742.2,630.3c1-15.2,25.3-36.6,40.6-35.7"/>
		<path class="st35" d="M876.2,289.9c14.2,31.5-11.9,100.1-43.4,114.3"/>
		<path class="st35" d="M789.1,373.2c14.9-2.5,41.1,16,43.7,30.9"/>
		<path class="st35" d="M858.4,230.8c29.5,39.8,14.2,143.8-25.6,173.3"/>
		<path class="st35" d="M825.3,466.9c-11.1-14-6.6-51.7,7.4-62.8"/>
		<path class="st35" d="M703.7,493.1c8-43.6,85.4-97,129-89"/>
		<path class="st35" d="M770.7,318.9c29.5,4.6,66.7,55.8,62.1,85.3"/>
		<path class="st35" d="M705,735.8c38.4-17.9,122.9,12.7,140.8,51.1"/>
		<path class="st35" d="M793.6,805.6c6.7-14.2,38.1-25.4,52.3-18.6"/>
		<path class="st35" d="M769.3,749.1c22.9-7.8,68.8,14.9,76.6,37.8"/>
		<path class="st35" d="M814.3,930.2c-22.3-35-3.4-121,31.6-143.3"/>
		<path class="st35" d="M895.5,813c-15.1,4.7-44.9-10.9-49.6-26.1"/>
		<path class="st35" d="M826.1,634.2c34.5,26.6,46.4,118.2,19.8,152.7"/>
		<path class="st35" d="M903.7,865.8c-27.3-4.2-62-51.5-57.8-78.9"/>
		<path class="st35" d="M969.6,864.7c-40.3,9.2-114.5-37.5-123.7-77.8"/>
		<path class="st35" d="M751.2,844c7.5-30.4,64.3-64.6,94.7-57.1"/>
		<path class="st35" d="M1145.3,246.3c-15.3,7.1-48.8-5.1-55.9-20.4"/>
		<path class="st35" d="M951.5,166.1c39.5-15.6,122.3,20.2,137.9,59.7"/>
		<path class="st35" d="M1195.2,165c-9,33.3-72.4,69.8-105.8,60.9"/>
		<path class="st35" d="M1032.8,253.4c5.8-16.8,39.8-33.4,56.6-27.6"/>
		<path class="st35" d="M976.8,217.4c24.2-20.8,91.8-15.8,112.6,8.5"/>
		<path class="st35" d="M1090,285.2c-12-11.8-12.3-47.4-0.5-59.4"/>
		<path class="st35" d="M1032.9,194.5c17.6-5,51.5,13.8,56.5,31.3"/>
		<path class="st35" d="M906.3,197.1c42.4-30.9,152.3-13.6,183.2,28.8"/>
		<path class="st35" d="M1090.1,169.7c11.1,11.4,10.7,45.1-0.6,56.2"/>
		<path class="st35" d="M1277.8,127c-17.9,57.5-131,116.8-188.4,98.9"/>
		<path class="st35" d="M1167.6,112.8c7,38.3-39.9,106.1-78.2,113.1"/>
		<path class="st35" d="M1114.8,116.4c16.8,27,1.6,92.6-25.4,109.4"/>
		<path class="st35" d="M1002.7,145.2c33.5-1.2,85.5,47.2,86.8,80.6"/>
		<path class="st35" d="M1145.3,246.3c23.3,24.7,21.2,96.6-3.5,119.9"/>
		<path class="st35" d="M1090,416.5c0.3-20.4,31.4-50.6,51.8-50.3"/>
		<path class="st35" d="M1143,308.3c11.4,11.8,10.7,46.6-1.1,58"/>
		<path class="st35" d="M1088.4,349.3c14.1-7.3,46.2,2.8,53.5,16.9"/>
		<path class="st35" d="M1195.3,282.2c6.1,27.5-26,77.9-53.5,84"/>
		<path class="st35" d="M1090,285.2c26.6,5.8,57.7,54.4,51.9,81"/>
		<path class="st35" d="M1196.8,347c-7.2,14.8-40.2,26.4-55,19.2"/>
		<path class="st35" d="M1015.9,427.5c12.9-37.5,88.5-74.3,125.9-61.3"/>
		<path class="st35" d="M1302.3,306.4c-20.1,44-116.4,79.9-160.4,59.8"/>
		<path class="st35" d="M1262.5,245.1c0.1,48.4-72.3,121-120.7,121.1"/>
		<path class="st35" d="M1254,358.7c-20.9,23.9-88.2,28.4-112.1,7.5"/>
		<path class="st35" d="M1041.8,886.3c-2.8,16-30.9,35.7-46.9,32.9"/>
		<path class="st35" d="M857.9,975.1c16.2-38.6,98.5-72.1,137.1-55.8"/>
		<path class="st35" d="M1093.7,911.3c-18.2,21.3-77.4,26-98.7,7.9"/>
		<path class="st35" d="M895.5,813c41.1,1.4,100.8,65.1,99.5,106.2"/>
		<path class="st35" d="M916.1,1016.2c-3.6-35.2,43.7-93.4,78.9-97"/>
		<path class="st35" d="M1068,1022.4c-35.3-6-79.1-68-73.1-103.2"/>
		<path class="st35" d="M903.7,865.8c28.9-7.6,83.7,24.5,91.3,53.4"/>
		<path class="st35" d="M968.7,1042.5c-19.4-29.9-3.7-103.9,26.2-123.3"/>
		<path class="st35" d="M969.6,864.7c16,5.8,31.2,38.5,25.4,54.5"/>
		<path class="st35" d="M967,974.8c-5.5-16.7,11.3-50.1,28-55.6"/>
		<path class="st35" d="M1014.4,1003.5c-20.7-13-32.4-63.5-19.5-84.3"/>
		<path class="st35" d="M1024.7,1066.5c-35.4-23.5-53.2-111.9-29.7-147.3"/>
		<path class="st35" d="M1125.8,1029.1c-48.1,4.2-126.6-61.7-130.8-109.9"/>
		<path class="st35" d="M1104.8,748.2c-32-12.6-61-79.4-48.4-111.4"/>
		<path class="st35" d="M999.1,563.3c26.1,3.2,60.5,47.3,57.3,73.4"/>
		<path class="st35" d="M917.4,691.9c16.8-38.8,100.1-71.9,139-55.2"/>
		<path class="st35" d="M1109.8,635.3c-10.4,11-42.4,11.9-53.3,1.5"/>
		<path class="st35" d="M1210.1,522.9c-8,53.5-100.2,121.8-153.7,113.8"/>
		<path class="st35" d="M1162.8,635c-20.9,21.6-84.8,22.7-106.4,1.8"/>
		<path class="st35" d="M1056.8,465.9c34.1,34.3,33.8,136.8-0.4,170.8"/>
		<path class="st35" d="M1135.8,696c-27.7,4-75.4-31.5-79.4-59.2"/>
		<path class="st35" d="M1241.7,575.1c-24.7,49.4-135.9,86.4-185.3,61.7"/>
		<path class="st35" d="M1180.4,471.4c8.3,57.9-66.1,157.1-123.9,165.4"/>
		<path class="st35" d="M1087.9,523.2c16.4,29-2.5,97.2-31.5,113.6"/>
		<path class="st35" d="M1000.7,775c-16.5-38.8,16.9-121.7,55.7-138.2"/>
		<path class="st35" d="M1119.2,577.2c-0.7,24.5-38.4,60.2-62.8,59.5"/>
		<path class="st35" d="M1217.1,632.6c-31.3,33-127.8,35.5-160.7,4.2"/>
		<path class="st35" d="M940.7,595c31.5-14.8,100.9,10.3,115.7,41.8"/>
		<path class="st35" d="M1058.6,576.8c11.5,12.4,10.2,48.4-2.2,60"/>
		<path class="st34" d="M925.1,322c22.7,2.1,53.5,39.3,51.4,62"/>
		<path class="st34" d="M982.9,331c9.3,11.9,5.5,43.6-6.3,52.9"/>
	</g>
	<g id="nodes">
		<circle class="st40" cx="1440.8" cy="534.6" r="41"/>
		<circle class="st41" cx="1549.1" cy="611.4" r="7.2"/>
		<circle class="st41" cx="1363.4" cy="833.7" r="24.6"/>
		<circle class="st41" cx="1331" cy="515" r="8.9"/>
		<circle class="st41" cx="1365.2" cy="302.1" r="7.2"/>
		<circle class="st41" cx="1492.4" cy="383.7" r="8.6"/>
		<circle class="st41" cx="1424.1" cy="478.4" r="4.4"/>
		<circle class="st41" cx="1551.6" cy="498.4" r="6.5"/>
		<circle class="st41" cx="1458.9" cy="431.2" r="4.4"/>
		<circle class="st42" cx="1604.2" cy="516.7" r="4.1"/>
		<circle class="st42" cx="1661.7" cy="553.5" r="4.1"/>
		<circle class="st43" cx="1592.2" cy="339.9" r="4.1"/>
		<circle class="st43" cx="1529.5" cy="339.6" r="4.1"/>
		<circle class="st42" cx="1420.4" cy="311.6" r="4.1"/>
		<circle class="st43" cx="1438.7" cy="365.1" r="4.1"/>
		<circle class="st42" cx="1332.6" cy="139" r="4.1"/>
		<circle class="st43" cx="1325" cy="253.3" r="4.1"/>
		<circle class="st44" cx="1486.8" cy="486" r="4.4"/>
		<circle class="st43" cx="1304.2" cy="194.3" r="4.1"/>
		<circle class="st45" cx="1374" cy="361.2" r="4.4"/>
		<circle class="st42" cx="1429.7" cy="192.7" r="4.1"/>
		<circle class="st42" cx="1315.9" cy="362" r="4.1"/>
		<circle class="st46" cx="1395.4" cy="632.2" r="4.4"/>
		<circle class="st47" cx="1340.1" cy="415.6" r="4.1"/>
		<circle class="st47" cx="1275.4" cy="412.5" r="4.1"/>
		<circle class="st45" cx="1368.3" cy="467.8" r="4.4"/>
		<circle class="st48" cx="1272.1" cy="630.8" r="4.8"/>
		<circle class="st47" cx="1303.8" cy="569.8" r="4.1"/>
		<circle class="st46" cx="1329" cy="630.8" r="4.4"/>
		<circle class="st47" cx="1384.7" cy="532.9" r="4.1"/>
		<circle class="st46" cx="1363.5" cy="585.4" r="4.4"/>
		<circle class="st47" cx="1302.3" cy="464" r="4.1"/>
		<circle class="st49" cx="1192.5" cy="806.7" r="4.1"/>
		<circle class="st49" cx="1150.8" cy="908.9" r="4.1"/>
		<circle class="st49" cx="1400.2" cy="881.9" r="4.1"/>
		<circle class="st49" cx="1539.9" cy="716.3" r="4.1"/>
		<circle class="st46" cx="1486.5" cy="611.6" r="4.4"/>
		<circle class="st45" cx="1434.7" cy="590.1" r="4.4"/>
		<circle class="st47" cx="1530.2" cy="855.7" r="4.1"/>
		<circle class="st49" cx="1223.1" cy="856.8" r="4.1"/>
		<circle class="st47" cx="1445" cy="929.8" r="4.1"/>
		<circle class="st49" cx="1468" cy="991" r="4.1"/>
		<circle class="st49" cx="1288.8" cy="845.8" r="4.1"/>
		<circle class="st49" cx="1315.5" cy="943.6" r="4.1"/>
		<circle class="st49" cx="1203.4" cy="1082.9" r="4.1"/>
		<circle class="st49" cx="1155.2" cy="967.2" r="4.1"/>
		<circle class="st49" cx="1620.4" cy="803.4" r="4.1"/>
		<circle class="st49" cx="1208.1" cy="911.9" r="4.1"/>
		<circle class="st49" cx="1313" cy="1067.4" r="4.1"/>
		<circle class="st47" cx="1372" cy="929.6" r="4.1"/>
		<circle class="st47" cx="1593.3" cy="856.9" r="4.1"/>
		<circle class="st47" cx="1285" cy="746.9" r="4.1"/>
		<circle class="st49" cx="1447.7" cy="767.3" r="4.1"/>
		<circle class="st49" cx="1443.1" cy="662" r="4.1"/>
		<circle class="st49" cx="1514.3" cy="957.9" r="4.1"/>
		<circle class="st47" cx="1512.7" cy="765.5" r="4.1"/>
		<circle class="st49" cx="1559.9" cy="908.9" r="4.1"/>
		<circle class="st49" cx="1243" cy="1024.7" r="4.1"/>
		<circle class="st47" cx="1457.7" cy="867.5" r="4.1"/>
		<circle class="st49" cx="1298.7" cy="1010.7" r="4.1"/>
		<circle class="st49" cx="1320.3" cy="795.2" r="4.1"/>
		<circle class="st49" cx="1226" cy="748.7" r="4.1"/>
		<circle class="st42" cx="1605.6" cy="577.8" r="4.1"/>
		<circle class="st42" cx="1617.1" cy="634.8" r="4.1"/>
		<circle class="st42" cx="1567" cy="663.7" r="4.1"/>
		<circle class="st50" cx="951.7" cy="533.3" r="41"/>
		<circle class="st51" cx="782.8" cy="594.6" r="6.8"/>
		<circle class="st51" cx="832.8" cy="404.2" r="8.6"/>
		<circle class="st51" cx="1089.4" cy="225.9" r="10.3"/>
		<circle class="st51" cx="845.9" cy="786.9" r="9.2"/>
		<circle class="st51" cx="1141.8" cy="366.2" r="9.2"/>
		<circle class="st51" cx="995" cy="919.2" r="10.9"/>
		<circle class="st51" cx="1056.4" cy="636.8" r="18.1"/>
		<circle class="st52" cx="976.5" cy="384" r="7.5"/>
		<circle class="st53" cx="881.8" cy="436.6" r="4.1"/>
		<circle class="st52" cx="1040.4" cy="376.2" r="4.4"/>
		<circle class="st53" cx="1036.8" cy="313.1" r="4.1"/>
		<circle class="st52" cx="1015.9" cy="427.5" r="4.4"/>
		<circle class="st54" cx="922.2" cy="254.1" r="4.1"/>
		<circle class="st54" cx="920.1" cy="387.3" r="4.1"/>
		<circle class="st54" cx="975.5" cy="275.7" r="4.1"/>
		<circle class="st52" cx="1088.4" cy="349.3" r="4.4"/>
		<circle class="st52" cx="1022.8" cy="831.9" r="4.1"/>
		<circle class="st52" cx="933" cy="759" r="4.1"/>
		<circle class="st52" cx="1092.2" cy="849" r="4.1"/>
		<circle class="st52" cx="1029" cy="515.9" r="4.1"/>
		<circle class="st54" cx="1127.9" cy="801.8" r="4.1"/>
		<circle class="st52" cx="1090" cy="416.5" r="4.4"/>
		<circle class="st52" cx="956.8" cy="811" r="4.1"/>
		<circle class="st52" cx="973.5" cy="718.8" r="4.1"/>
		<circle class="st52" cx="1040.5" cy="736.8" r="4.1"/>
		<circle class="st52" cx="983.6" cy="482.5" r="4.1"/>
		<circle class="st52" cx="1118.1" cy="470.3" r="4.1"/>
		<circle class="st55" cx="1168.4" cy="751.9" r="4.4"/>
		<circle class="st52" cx="1065.3" cy="794.1" r="4.1"/>
		<circle class="st52" cx="1076.9" cy="692.9" r="4.1"/>
		<circle class="st52" cx="1000.5" cy="619.2" r="4.1"/>
		<circle class="st52" cx="1192.3" cy="691.9" r="4.1"/>
		<circle class="st52" cx="1012.4" cy="679.9" r="4.1"/>
		<circle class="st54" cx="889.6" cy="624.4" r="4.1"/>
		<circle class="st52" cx="880.9" cy="739" r="4.1"/>
		<circle class="st52" cx="952.1" cy="652.2" r="4.1"/>
		<circle class="st52" cx="1148.7" cy="524" r="4.1"/>
		<circle class="st52" cx="862" cy="679.2" r="4.1"/>
		<circle class="st52" cx="897.2" cy="556.7" r="4.1"/>
		<circle class="st52" cx="1180.5" cy="577" r="4.1"/>
		<circle class="st52" cx="936" cy="914" r="4.1"/>
		<circle class="st52" cx="1042.7" cy="952.7" r="4.1"/>
		<circle class="st54" cx="1097.8" cy="971.2" r="4.1"/>
		<circle class="st52" cx="1143.1" cy="1086.5" r="4.1"/>
		<circle class="st52" cx="908" cy="959.2" r="4.1"/>
		<circle class="st52" cx="1084.5" cy="1080.7" r="4.1"/>
		<circle class="st52" cx="1154.2" cy="418.7" r="4.1"/>
		<circle class="st52" cx="1211.5" cy="407.2" r="4.1"/>
		<circle class="st54" cx="1246.5" cy="300.6" r="4.1"/>
		<circle class="st52" cx="788.1" cy="882.9" r="4.1"/>
		<circle class="st52" cx="820.8" cy="729.9" r="4.1"/>
		<circle class="st52" cx="864.2" cy="906.2" r="4.1"/>
		<circle class="st54" cx="837.8" cy="850.4" r="4.1"/>
		<circle class="st52" cx="727.8" cy="790.8" r="4.1"/>
		<circle class="st52" cx="1144.8" cy="185.1" r="4.1"/>
		<circle class="st52" cx="1203.9" cy="224.5" r="4.1"/>
		<circle class="st52" cx="1055.1" cy="124.1" r="4.1"/>
		<circle class="st52" cx="1225.5" cy="112.7" r="4.1"/>
		<circle class="st52" cx="1249.6" cy="182.1" r="4.1"/>
		<circle class="st52" cx="874" cy="360.5" r="4.1"/>
		<circle class="st52" cx="762.6" cy="492.5" r="4.1"/>
		<circle class="st52" cx="734.9" cy="382.4" r="4.1"/>
		<circle class="st52" cx="716.2" cy="438.9" r="4.1"/>
		<circle class="st52" cx="830.3" cy="326.8" r="4.1"/>
		<circle class="st52" cx="814.2" cy="269.7" r="4.1"/>
		<circle class="st52" cx="775.8" cy="435.7" r="4.1"/>
		<circle class="st52" cx="792.2" cy="676.9" r="4.1"/>
		<circle class="st54" cx="801.6" cy="533.2" r="4.1"/>
		<circle class="st52" cx="690.4" cy="606.1" r="4.1"/>
		<circle class="st51" cx="910.9" cy="488.2" r="4.1"/>
		<circle class="st51" cx="858.2" cy="511" r="4.1"/>
		<circle class="st51" cx="843.7" cy="576.3" r="4.1"/>
		<circle class="st51" cx="946.6" cy="440.6" r="4.1"/>
		<circle class="st47" cx="1270" cy="517.6" r="4.1"/>
		<circle class="st47" cx="1239.8" cy="462.7" r="4.1"/>
		<circle class="st42" cx="1360.4" cy="203.6" r="4.1"/>
		<circle class="st42" cx="1389" cy="155" r="4.1"/>
		<circle class="st42" cx="1393.3" cy="248.2" r="4.1"/>
		<circle class="st42" cx="1612.1" cy="700.7" r="4.1"/>
		<circle class="st42" cx="1648.2" cy="744.4" r="4.1"/>
		<circle class="st42" cx="1548.8" cy="556.6" r="4.1"/>
		<circle class="st42" cx="1664.2" cy="675.8" r="4.1"/>
		<circle class="st49" cx="1267.6" cy="900.8" r="4.1"/>
		<circle class="st49" cx="1408.7" cy="973" r="4.1"/>
		<circle class="st49" cx="1365.5" cy="1049.6" r="4.1"/>
		<circle class="st49" cx="1369" cy="682" r="4.1"/>
		<circle class="st49" cx="1259.3" cy="1080.4" r="4.1"/>
		<circle class="st49" cx="1384.6" cy="774" r="4.1"/>
		<circle class="st49" cx="1184.3" cy="1027" r="4.1"/>
		<circle class="st49" cx="1331.3" cy="883.7" r="4.1"/>
		<circle class="st49" cx="1504.1" cy="665.4" r="4.1"/>
		<circle class="st49" cx="1412.7" cy="717.2" r="4.1"/>
		<circle class="st49" cx="1419" cy="1028" r="4.1"/>
		<circle class="st49" cx="1421.9" cy="820.7" r="4.1"/>
		<circle class="st49" cx="1158.3" cy="855.6" r="4.1"/>
		<circle class="st49" cx="1262.6" cy="960.8" r="4.1"/>
		<circle class="st49" cx="1557.3" cy="805.8" r="4.1"/>
		<circle class="st49" cx="1499.2" cy="905.7" r="4.1"/>
		<circle class="st49" cx="1209.5" cy="971" r="4.1"/>
		<circle class="st49" cx="1308.1" cy="687.1" r="4.1"/>
		<circle class="st49" cx="1486.8" cy="816" r="4.1"/>
		<circle class="st49" cx="1474.4" cy="715.5" r="4.1"/>
		<circle class="st49" cx="1583.7" cy="755.2" r="4.1"/>
		<circle class="st49" cx="1251.5" cy="692.2" r="4.1"/>
		<circle class="st49" cx="1253.5" cy="801.4" r="4.1"/>
		<circle class="st49" cx="1352.6" cy="992.9" r="4.1"/>
		<circle class="st49" cx="1344.2" cy="736.3" r="4.1"/>
		<circle class="st42" cx="1557.7" cy="393.5" r="4.1"/>
		<circle class="st42" cx="1515.6" cy="257.6" r="4.1"/>
		<circle class="st42" cx="1558.6" cy="289.8" r="4.1"/>
		<circle class="st42" cx="1522.4" cy="440.3" r="4.1"/>
		<circle class="st42" cx="1482" cy="212.5" r="4.1"/>
		<circle class="st42" cx="1496" cy="545.6" r="4.1"/>
		<circle class="st42" cx="1450" cy="260.1" r="4.1"/>
		<circle class="st42" cx="1481.1" cy="312.2" r="4.1"/>
		<circle class="st42" cx="1656.5" cy="496.9" r="4.1"/>
		<circle class="st42" cx="1668.1" cy="610" r="4.1"/>
		<circle class="st42" cx="1640.1" cy="444" r="4.1"/>
		<circle class="st42" cx="1584" cy="450.8" r="4.1"/>
		<circle class="st42" cx="1618.5" cy="391.9" r="4.1"/>
		<circle class="st42" cx="1402.4" cy="414.1" r="4.1"/>
		<circle class="st52" cx="688.4" cy="549.1" r="4.1"/>
		<circle class="st52" cx="742.5" cy="554.7" r="4.1"/>
		<circle class="st52" cx="740.5" cy="692.1" r="4.1"/>
		<circle class="st52" cx="689.1" cy="667" r="4.1"/>
		<circle class="st52" cx="742.2" cy="630.3" r="4.1"/>
		<circle class="st52" cx="876.2" cy="289.9" r="4.1"/>
		<circle class="st52" cx="789.1" cy="373.2" r="4.1"/>
		<circle class="st52" cx="858.4" cy="230.8" r="4.1"/>
		<circle class="st52" cx="825.3" cy="466.9" r="4.1"/>
		<circle class="st52" cx="703.7" cy="493.1" r="4.1"/>
		<circle class="st52" cx="770.7" cy="318.9" r="4.1"/>
		<circle class="st52" cx="705" cy="735.8" r="4.1"/>
		<circle class="st52" cx="793.6" cy="805.6" r="4.1"/>
		<circle class="st52" cx="769.3" cy="749.1" r="4.1"/>
		<circle class="st52" cx="814.3" cy="930.2" r="4.1"/>
		<circle class="st52" cx="895.5" cy="813" r="4.4"/>
		<circle class="st52" cx="826.1" cy="634.2" r="4.1"/>
		<circle class="st52" cx="903.7" cy="865.8" r="4.4"/>
		<circle class="st52" cx="969.6" cy="864.7" r="4.4"/>
		<circle class="st52" cx="751.2" cy="844" r="4.1"/>
		<circle class="st52" cx="1145.3" cy="246.3" r="4.4"/>
		<circle class="st52" cx="951.5" cy="166.1" r="4.1"/>
		<circle class="st52" cx="1195.2" cy="165" r="4.1"/>
		<circle class="st52" cx="1032.8" cy="253.4" r="4.1"/>
		<circle class="st52" cx="976.8" cy="217.4" r="4.1"/>
		<circle class="st52" cx="1090" cy="285.2" r="4.4"/>
		<circle class="st52" cx="1032.9" cy="194.5" r="4.1"/>
		<circle class="st52" cx="906.3" cy="197.1" r="4.1"/>
		<circle class="st52" cx="1090.1" cy="169.7" r="4.1"/>
		<circle class="st52" cx="1277.8" cy="127" r="4.1"/>
		<circle class="st52" cx="1167.6" cy="112.8" r="4.1"/>
		<circle class="st52" cx="1114.8" cy="116.4" r="4.1"/>
		<circle class="st52" cx="1002.7" cy="145.2" r="4.1"/>
		<circle class="st52" cx="1143" cy="308.3" r="4.1"/>
		<circle class="st52" cx="1195.3" cy="282.2" r="4.1"/>
		<circle class="st52" cx="1196.8" cy="347" r="4.1"/>
		<circle class="st52" cx="1302.3" cy="306.4" r="4.1"/>
		<circle class="st52" cx="1262.5" cy="245.1" r="4.1"/>
		<circle class="st52" cx="1254" cy="358.7" r="4.1"/>
		<circle class="st52" cx="1041.8" cy="886.3" r="4.1"/>
		<circle class="st52" cx="857.9" cy="975.1" r="4.1"/>
		<circle class="st52" cx="1093.7" cy="911.3" r="4.1"/>
		<circle class="st52" cx="916.1" cy="1016.2" r="4.1"/>
		<circle class="st52" cx="1068" cy="1022.4" r="4.1"/>
		<circle class="st52" cx="968.7" cy="1042.5" r="4.1"/>
		<circle class="st52" cx="967" cy="974.8" r="4.1"/>
		<circle class="st52" cx="1014.4" cy="1003.5" r="4.1"/>
		<circle class="st52" cx="1024.7" cy="1066.5" r="4.1"/>
		<circle class="st52" cx="1125.8" cy="1029.1" r="4.1"/>
		<circle class="st52" cx="1104.8" cy="748.2" r="4.1"/>
		<circle class="st52" cx="999.1" cy="563.3" r="4.1"/>
		<circle class="st52" cx="917.4" cy="691.9" r="4.1"/>
		<circle class="st52" cx="1109.8" cy="635.3" r="4.1"/>
		<circle class="st52" cx="1210.1" cy="522.9" r="4.1"/>
		<circle class="st52" cx="1162.8" cy="635" r="4.1"/>
		<circle class="st52" cx="1056.8" cy="465.9" r="4.1"/>
		<circle class="st52" cx="1135.8" cy="696" r="4.1"/>
		<circle class="st52" cx="1241.7" cy="575.1" r="4.1"/>
		<circle class="st52" cx="1180.4" cy="471.4" r="4.1"/>
		<circle class="st52" cx="1087.9" cy="523.2" r="4.1"/>
		<circle class="st52" cx="1000.7" cy="775" r="4.1"/>
		<circle class="st52" cx="1119.2" cy="577.2" r="4.1"/>
		<circle class="st52" cx="1217.1" cy="632.6" r="4.1"/>
		<circle class="st52" cx="940.7" cy="595" r="4.1"/>
		<circle class="st52" cx="1058.6" cy="576.8" r="4.1"/>
		<circle class="st54" cx="925.1" cy="322" r="4.1"/>
		<circle class="st54" cx="982.9" cy="331" r="4.1"/>
	</g>
</g>
<line class="st56" x1="1440.8" y1="534.6" x2="1331.3" y2="516.2"/>
<line class="st56" x1="1440.8" y1="534.6" x2="1363.5" y2="833.8"/>
<line class="st56" x1="1331" y1="515.6" x2="1272.2" y2="631.2"/>
<line class="st56" x1="1363.5" y1="833.8" x2="1272.2" y2="631.2"/>
<line class="st56" x1="1168.4" y1="752" x2="1362" y2="833.2"/>
<line class="st56" x1="1056.6" y1="636.5" x2="1271.8" y2="630.8"/>
<line class="st56" x1="1168.4" y1="752" x2="1056.6" y2="636.5"/>
<line class="st56" x1="951.7" y1="533.3" x2="1056.6" y2="636.5"/>
<circle class="st57" cx="1440.8" cy="534.6" r="4.1"/>
<circle class="st57" cx="1271.8" cy="630.8" r="4.1"/>
<circle class="st57" cx="1168.4" cy="751.8" r="4.1"/>
<circle class="st57" cx="1056.2" cy="636.7" r="4.1"/>
<circle class="st57" cx="952.1" cy="533.3" r="4.1"/>
<circle class="st57" cx="1331" cy="515.6" r="4.1"/>
<circle class="st57" cx="1363.2" cy="833.2" r="4.1"/>
</svg>
